<svg xmlns="http://www.w3.org/2000/svg" viewBox="0 0 87 33" fill="none">
  <path d="M62.93 5.05042L61.3527 8.85362H64.5233L62.9283 5.05042H62.93ZM8.42284 5.05042L6.86328 8.85362H9.99367L8.42284 5.05042ZM44.61 5.58961C44.3361 5.43601 43.9172 5.41681 43.5209 5.41681H40.6934V7.53521H43.4838C43.9253 7.53521 44.2991 7.52722 44.6181 7.33842C44.9145 7.18482 45.0917 6.84881 45.0917 6.43281C45.0917 6.02321 44.9081 5.72881 44.61 5.58961ZM54.4474 21.9992C54.1687 21.8344 53.7579 21.8264 53.3519 21.8264H50.5244V23.9688H53.3148C53.7627 23.9688 54.1446 23.9544 54.4539 23.7752C54.7503 23.5928 54.9276 23.268 54.9276 22.8568C54.9227 22.4472 54.7455 22.1528 54.4474 21.9992ZM43.2696 21.8232H40.2761V24.252H43.2406C44.1234 24.252 44.6728 23.82 44.6728 22.996C44.6712 22.1576 44.0993 21.8232 43.2696 21.8232Z" fill="currentColor"/>
  <path d="M85.6788 23.2552L85.6289 23.2088C86.0639 22.9288 86.3539 22.4408 86.3539 21.8872V19.8552C86.3541 19.648 86.3132 19.4428 86.2334 19.2513C86.1536 19.0598 86.0367 18.8858 85.8891 18.7392C85.7415 18.5927 85.5663 18.4765 85.3735 18.3973C85.1807 18.3181 84.974 18.2774 84.7653 18.2776H80.1656C78.7317 18.2776 77.6507 18.6968 76.8628 19.3304C76.7572 19.0239 76.558 18.7578 76.2929 18.5691C76.0278 18.3804 75.71 18.2785 75.3839 18.2776H70.7825C69.5178 18.2776 68.5205 18.588 67.7617 19.1C67.6295 18.8536 67.4328 18.6471 67.1924 18.5023C66.9519 18.3576 66.6766 18.28 66.3955 18.2776H58.7346C58.443 18.2791 58.1576 18.3609 57.9101 18.514C57.6626 18.6671 57.4628 18.8855 57.333 19.1448C57.2234 19.068 57.1428 18.98 57.0268 18.9128C55.9152 18.3208 54.7342 18.2776 53.5178 18.2776H48.2125C47.92 18.2796 47.6339 18.3626 47.3862 18.5172C47.1386 18.6718 46.9393 18.8919 46.8108 19.1528C46.0052 18.6312 44.8742 18.2776 43.2696 18.2776H35.9326C35.7141 18.2768 35.4979 18.3209 35.2974 18.4071C35.097 18.4932 34.9166 18.6197 34.7677 18.7784L33.0277 20.6408L31.3586 18.8008C31.2114 18.6345 31.0299 18.5015 30.8265 18.411C30.623 18.3204 30.4023 18.2744 30.1793 18.276H20.9476C20.7392 18.2758 20.5327 18.3164 20.3401 18.3956C20.1474 18.4747 19.9724 18.5908 19.825 18.7372C19.6776 18.8835 19.5607 19.0574 19.481 19.2487C19.4014 19.44 19.3605 19.645 19.3607 19.852V29.3944C19.3607 30.2664 20.0696 30.9704 20.946 30.9704H30.0423C30.2609 30.9706 30.4771 30.9258 30.6773 30.8387C30.8775 30.7517 31.0574 30.6244 31.2056 30.4648L32.9585 28.5816L34.6211 30.4392C34.9224 30.7768 35.3558 30.9672 35.8085 30.9672H40.2713C40.4795 30.9674 40.6857 30.9269 40.8781 30.848C41.0705 30.7691 41.2454 30.6533 41.3928 30.5072C41.5401 30.3612 41.6571 30.1877 41.7369 29.9968C41.8168 29.8059 41.858 29.6012 41.8582 29.3944V27.764H43.1342C44.6873 27.764 45.8087 27.4472 46.6255 26.9656V29.3928C46.6255 30.2616 47.336 30.9656 48.2141 30.9656H50.5212C50.7294 30.9658 50.9356 30.9253 51.128 30.8464C51.3204 30.7675 51.4953 30.6517 51.6426 30.5056C51.79 30.3596 51.907 30.1861 51.9868 29.9952C52.0667 29.8043 52.1079 29.5996 52.1081 29.3928V27.4792H52.9733C53.1843 27.4792 53.3326 27.4872 53.4405 27.4952C53.4486 27.6648 53.4486 27.868 53.4437 28.004V29.3928C53.4437 30.2616 54.1591 30.9656 55.0323 30.9656H57.3362C57.594 30.9656 57.826 30.8968 58.037 30.788C58.2536 30.9004 58.4935 30.9613 58.7378 30.9656H66.4003C66.6403 30.9617 66.8762 30.9031 67.0898 30.7944C67.2993 30.8968 67.5248 30.9656 67.7794 30.9656H72.2518C73.6745 30.9656 74.8345 30.6184 75.7028 30.0072C75.8234 30.2919 76.026 30.5349 76.2851 30.7057C76.5442 30.8764 76.8483 30.9674 77.1593 30.9672H81.6317C84.8846 30.9672 86.8227 29.2504 86.8227 26.3784C86.8227 25.0504 86.4618 24.0584 85.6772 23.2536L85.6788 23.2552ZM43.1391 26.188H40.2745V29.3912H35.8117L32.9826 26.2328L30.044 29.3912H20.9476V19.8472H30.1809L33.01 22.9768L35.931 19.8472H43.2663C45.0869 19.8472 47.1378 20.3544 47.1378 22.996C47.1378 25.6424 45.1465 26.1944 43.1391 26.188ZM55.8346 24.9608C56.3437 25.1448 56.761 25.4808 56.9543 25.7608C57.2814 26.228 57.3249 26.6616 57.3362 27.5016V29.3944H55.0323V28.1992C55.0323 27.6264 55.0871 26.7752 54.6569 26.3304C54.3282 25.9912 53.8191 25.9112 52.9765 25.9112H50.5244V29.3944H48.2173V19.852H53.5211C54.6811 19.852 55.5253 19.9 56.2825 20.3C57.0075 20.7336 57.4635 21.332 57.4635 22.4184C57.4635 23.9432 56.4372 24.7208 55.8362 24.9608H55.8346ZM66.3987 21.8248H61.0224V23.5608H66.2666V25.5096H61.0224V27.404L66.3987 27.4152V29.3944H58.7378V19.852H66.3987V21.8248ZM72.2551 29.3832H67.7826V27.3336H72.2357C72.6675 27.3336 72.9768 27.2808 73.1702 27.0968C73.2559 27.0168 73.324 26.9201 73.3703 26.8127C73.4166 26.7053 73.4401 26.5896 73.4392 26.4728C73.4424 26.3541 73.419 26.2361 73.3708 26.1274C73.3226 26.0187 73.2508 25.9219 73.1605 25.844C72.9817 25.6984 72.7448 25.6328 72.3421 25.6328C70.1977 25.5624 67.5071 25.6968 67.5071 22.6808C67.5071 21.292 68.3803 19.8408 70.7906 19.8408H75.3903V21.8712H71.1788C70.7583 21.8712 70.4877 21.8872 70.2589 22.044C70.006 22.2008 69.9109 22.4312 69.9109 22.732C69.9109 23.0936 70.1252 23.3336 70.412 23.444C70.6585 23.5272 70.9162 23.5528 71.3077 23.5528L72.5418 23.588C73.7856 23.6216 74.6427 23.8344 75.1599 24.356C75.611 24.8168 75.8495 25.3992 75.8495 26.3784C75.8495 28.436 74.5606 29.3944 72.2551 29.3832ZM81.6366 29.3832H77.1641V27.3336H81.6188C82.0522 27.3336 82.3616 27.2808 82.5533 27.0968C82.639 27.0168 82.7071 26.9201 82.7534 26.8127C82.7997 26.7053 82.8232 26.5896 82.8223 26.4728C82.8253 26.354 82.8017 26.2359 82.7532 26.1272C82.7047 26.0185 82.6326 25.9218 82.542 25.844C82.3648 25.6984 82.1296 25.6328 81.7236 25.6328C79.5776 25.5624 76.8902 25.6968 76.8902 22.6808C76.8902 21.292 77.7635 19.8408 80.1721 19.8408H84.7734V21.8712H80.562C80.1398 21.8712 79.8692 21.8872 79.6404 22.044C79.3875 22.2008 79.2956 22.4312 79.2956 22.732C79.2922 22.8879 79.3387 23.0409 79.4285 23.1689C79.5182 23.2969 79.6466 23.3932 79.7951 23.444C80.0416 23.5272 80.2977 23.5528 80.6892 23.5528L81.9233 23.588C83.1687 23.6216 84.0291 23.8344 84.5462 24.356C84.9925 24.8168 85.2342 25.3992 85.2342 26.3784C85.2342 28.436 83.9453 29.3944 81.6366 29.3832ZM78.4723 1.85523H76.1201C75.9118 1.85502 75.7055 1.89558 75.5129 1.97461C75.3204 2.05364 75.1455 2.16957 74.9981 2.31579C74.8507 2.46201 74.7338 2.63564 74.654 2.82676C74.5742 3.01788 74.5332 3.22274 74.5332 3.42963V4.41523L73.4441 2.61683C73.3021 2.38532 73.1026 2.19388 72.8649 2.06081C72.6271 1.92775 72.3588 1.85751 72.0859 1.85683H68.5866C68.1661 1.85683 67.7629 2.0227 67.4656 2.31796C67.1683 2.61321 67.0012 3.01367 67.0012 3.43123V4.77043L66.157 2.81043C66.035 2.52757 65.8322 2.28646 65.5736 2.11696C65.315 1.94746 65.012 1.85702 64.7022 1.85683H61.2608C60.9199 1.85625 60.588 1.96575 60.3151 2.16883C60.0409 1.96486 59.7072 1.85532 59.3646 1.85683H57.1461C55.2595 1.85683 53.8626 2.30963 52.8347 3.19443C52.7823 2.82564 52.5983 2.48779 52.3162 2.24232C52.0342 1.99685 51.6728 1.86006 51.2977 1.85683H48.952C48.6568 1.85898 48.3682 1.94315 48.1188 2.09981C47.8694 2.25647 47.6691 2.47935 47.5406 2.74323C47.4423 2.67283 47.3666 2.58643 47.2555 2.52243C46.1776 1.90483 45.045 1.85683 43.6788 1.85683H38.3976C38.1155 1.86464 37.8408 1.94873 37.6033 2.10003C37.3662 1.94775 37.0913 1.86358 36.809 1.85683H29.1401C28.8325 1.86376 28.5341 1.96182 28.283 2.13843C28.0326 1.96295 27.7355 1.86497 27.4291 1.85683H23.6011C23.2901 1.85713 22.986 1.94832 22.7267 2.11902C22.4674 2.28972 22.2645 2.5324 22.1431 2.81683L20.7801 6.01043L19.2769 2.77203C19.1494 2.4992 18.9461 2.26816 18.691 2.10605C18.4359 1.94394 18.1394 1.85748 17.8366 1.85683H14.0859C13.6654 1.85683 13.2622 2.0227 12.9649 2.31796C12.6676 2.61321 12.5006 3.01367 12.5006 3.43123V4.80242L11.6386 2.80723C11.5158 2.52479 11.3124 2.28419 11.0537 2.11505C10.7949 1.9459 10.492 1.85559 10.1822 1.85523H6.77145C6.46125 1.85562 6.15793 1.9461 5.89886 2.11554C5.6398 2.28498 5.43628 2.52597 5.3134 2.80883L1.20345 12.3512C1.10085 12.5907 1.05951 12.8517 1.08312 13.1109C1.10672 13.3701 1.19453 13.6195 1.33872 13.8368C1.48291 14.0542 1.679 14.2327 1.90952 14.3565C2.14004 14.4803 2.39783 14.5456 2.6599 14.5464H5.15551C5.79351 14.5464 6.37029 14.1624 6.61679 13.5752L7.10012 12.4168H9.76329L10.2418 13.5688C10.4835 14.1592 11.0635 14.5448 11.7079 14.5448H16.3801C16.5884 14.5448 16.7947 14.504 16.9872 14.4248C17.1796 14.3456 17.3545 14.2295 17.5017 14.0831C17.6489 13.9368 17.7657 13.763 17.8452 13.5718C17.9248 13.3806 17.9657 13.1757 17.9655 12.9688V12.932L18.2667 13.6088C18.3913 13.8876 18.5946 14.1245 18.8519 14.2909C19.1093 14.4573 19.4096 14.546 19.7167 14.5464L21.7338 14.5496C22.3638 14.5496 22.9293 14.1816 23.1838 13.6104L23.4883 12.9352V12.9752C23.4883 13.844 24.1972 14.548 25.0737 14.548H27.4275C27.7497 14.548 28.0317 14.4264 28.283 14.2648C28.5343 14.4264 28.8147 14.548 29.1401 14.548H36.809C37.0913 14.5413 37.3662 14.4571 37.6033 14.3048C37.8412 14.4566 38.1165 14.5407 38.3992 14.548H40.6982C40.9064 14.548 41.1126 14.5073 41.3049 14.4282C41.4973 14.3491 41.672 14.2331 41.8192 14.0869C41.9664 13.9407 42.0832 13.7671 42.1629 13.5761C42.2426 13.3851 42.2836 13.1804 42.2836 12.9736V11.076H43.1616C43.3598 11.076 43.5016 11.0808 43.6063 11.0888C43.6176 11.2504 43.6143 11.4424 43.6143 11.5704L43.6111 11.78L43.6192 12.9832C43.6272 13.8472 44.3377 14.5464 45.2077 14.5464H47.5245C47.7823 14.5464 48.0175 14.4664 48.2334 14.356C48.4541 14.468 48.691 14.5464 48.952 14.5464H51.2977C51.661 14.5437 52.012 14.4156 52.2906 14.1841C52.5692 13.9527 52.7582 13.6322 52.8251 13.2776C54.1252 14.364 55.9587 14.5464 56.9785 14.5464H59.6691C59.9842 14.5453 60.2918 14.4507 60.5524 14.2748C60.813 14.0989 61.0148 13.8497 61.132 13.5592L61.5992 12.4168H64.2462L64.7296 13.5752C64.9761 14.1608 65.5512 14.5448 66.1957 14.5448H70.8679C71.0762 14.5448 71.2825 14.504 71.475 14.4248C71.6674 14.3456 71.8422 14.2295 71.9895 14.0831C72.1367 13.9368 72.2534 13.763 72.333 13.5718C72.4126 13.3806 72.4534 13.1757 72.4532 12.9688V11.4648L73.8613 13.7848C74.0033 14.0171 74.2031 14.2091 74.4416 14.3422C74.6801 14.4754 74.9492 14.5451 75.2227 14.5448H78.474C78.6823 14.5448 78.8886 14.504 79.081 14.4248C79.2735 14.3456 79.4483 14.2295 79.5955 14.0831C79.7428 13.9368 79.8595 13.763 79.9391 13.5718C80.0187 13.3806 80.0595 13.1757 80.0593 12.9688V3.42963C80.0584 3.01233 79.8911 2.61236 79.594 2.31729C79.2969 2.02222 78.8925 1.85607 78.4723 1.85523ZM27.4243 12.9688H25.0721L25.0624 5.49683L21.7322 12.9688H19.7151L16.3801 5.49043V12.9688H11.7063L10.8234 10.8408H6.04162L5.15068 12.9688H2.65345L6.76984 3.42803H10.179L14.0859 12.4632V3.42803H17.835L20.8397 9.90162L23.5995 3.42803H27.4259V12.9688H27.4243ZM36.8042 5.41683H31.4327V7.13522H36.6785V9.09042H31.4327V10.996H36.8058V12.9688H29.1369V3.42803H36.8058V5.41523L36.8042 5.41683ZM46.0004 8.54322C46.5031 8.73522 46.9348 9.06962 47.1378 9.34642C47.4633 9.82162 47.5181 10.244 47.5181 11.0952V12.9672H45.2029L45.1916 11.764C45.1916 11.1912 45.2464 10.3672 44.8307 9.90642C44.4956 9.57202 43.9833 9.49843 43.1552 9.49843H40.6966V12.9704H38.3976V3.42803H43.6772C44.8517 3.42803 45.7152 3.45843 46.4563 3.88563C47.183 4.31123 47.618 4.93363 47.618 5.99763C47.618 7.51763 46.5965 8.30642 46.002 8.54163L46.0004 8.54322ZM51.2977 12.9688H48.952V3.42803H51.2977V12.9688ZM78.4723 12.9688H75.2179L70.8631 5.80883V12.9688H66.1908L65.2967 10.8408H60.5246L59.661 12.9688H56.9721C55.8572 12.9688 54.4475 12.724 53.65 11.9144C52.8363 11.1048 52.4191 10.0056 52.4191 8.27282C52.4191 6.85682 52.6704 5.56242 53.6483 4.53843C54.3878 3.77843 55.5495 3.42803 57.1348 3.42803H59.3533V5.47283H57.1783C56.3421 5.47283 55.8685 5.59443 55.4125 6.03763C55.021 6.43923 54.7552 7.19922 54.7552 8.19922C54.7552 9.22002 54.9582 9.95602 55.3883 10.4392C55.7444 10.8168 56.3888 10.9304 56.9882 10.9304H58.0193L61.2608 3.42803H64.7022L68.5866 12.452V3.42803H72.0859L76.1217 10.0728V3.42803H78.4723V12.9688ZM57.979 7.04883L56.9801 9.35922C56.761 9.35922 56.6128 9.33362 56.529 9.31122C56.4533 9.17042 56.347 8.85523 56.347 8.20083C56.347 7.54003 56.5081 7.19763 56.5306 7.16722C56.5951 7.10322 56.6515 7.04723 57.1912 7.04723L57.979 7.04883Z" fill="currentColor"/>
  <path d="M34.4616 24.6392L37.9883 28.5272V20.8792L34.4616 24.6392ZM28.9951 21.828H23.2402V23.5592H28.2798V25.508H23.2402V27.4072H28.884L31.5052 24.604L28.9951 21.828Z" fill="currentColor"/>
</svg>