<svg xmlns="http://www.w3.org/2000/svg" viewBox="0 0 100 29" fill="none">
  <path d="M19.4307 3.98268C19.0628 3.26643 18.5048 2.66503 17.8178 2.24429C17.0903 1.79963 16.2323 1.48868 15.2516 1.30341C14.2533 1.12296 13.1016 1.04241 11.7662 1.03113H5.60002C5.27484 1.04558 4.96254 1.16225 4.70766 1.36448C4.45278 1.56671 4.26835 1.84417 4.18067 2.15729L0.0322824 20.2082C-0.117718 20.8172 0.283895 21.3295 0.924218 21.3295H3.87744C4.51777 21.3295 5.15164 20.8333 5.29519 20.2082L6.30809 15.826C6.44357 15.2154 7.07583 14.7062 7.72261 14.7062H8.56777C12.1791 14.7014 14.9742 13.9651 16.9823 12.4894C19.0016 11.012 19.9984 9.05768 19.9984 6.64102C19.9952 5.58091 19.821 4.69157 19.4307 3.98268ZM13.0629 9.87935C12.1694 10.5319 10.9291 10.8589 9.32906 10.8589H8.60648C7.96293 10.8589 7.56938 10.3514 7.7097 9.73274L8.5968 5.90152C8.72261 5.28607 9.37099 4.77696 10.0049 4.78179L10.9726 4.77535C12.1016 4.77535 12.9629 4.97029 13.5403 5.34891C14.1097 5.72268 14.3952 6.31718 14.392 7.10502C14.4081 8.30529 13.95 9.22685 13.0629 9.87935ZM33.6694 6.56207C32.5549 5.93374 30.7952 5.62118 28.392 5.62118C27.2016 5.62118 26.0178 5.71463 24.8194 5.89829C23.9355 6.03363 23.85 6.05941 23.3049 6.17863C22.1823 6.42352 22.0065 7.54163 22.0065 7.54163L21.6452 9.02707C21.4403 9.97441 21.9871 9.93735 22.2145 9.85841C22.7049 9.71179 22.9791 9.56196 23.9807 9.33802C24.9371 9.12052 25.9468 8.9578 26.7468 8.96746C27.9274 8.96746 28.8307 9.09313 29.4323 9.34607C30.0258 9.60385 30.3226 10.0469 30.3226 10.6865L30.271 11.1038L29.8452 11.3664C28.1694 11.4711 26.9581 11.6242 25.4903 11.8385C24.0549 12.0382 22.7936 12.3879 21.7468 12.868C20.621 13.361 19.7871 14.0247 19.2049 14.869C18.6403 15.718 18.3597 16.7475 18.3597 17.9542C18.3597 19.0901 18.7678 20.0294 19.5613 20.756C20.3597 21.4681 21.4129 21.8161 22.6742 21.8161C23.471 21.8129 24.0887 21.75 24.5274 21.6453L25.9565 21.1523L27.1678 20.4821L28.2807 19.7474L28.2968 19.77L28.1839 20.242L28.1791 20.2614V20.2662C28.0581 20.8414 28.4065 21.3134 28.9678 21.3698L28.9791 21.3827H31.721L31.7597 21.3666C32.3484 21.2973 32.9016 20.8236 33.0307 20.2614L35.1823 10.954L35.2952 10.1951L35.3468 9.48463C35.3549 8.16352 34.7855 7.18718 33.6694 6.56207ZM28.9081 17.0279L28.4468 17.6336L27.2855 18.233C26.7403 18.4553 26.221 18.5665 25.742 18.5665C25.0162 18.5665 24.4452 18.4617 24.0597 18.2458L23.4903 17.1406C23.4903 16.5413 23.6274 16.066 23.9226 15.7003L25.1742 14.8496C25.8083 14.644 26.4599 14.4973 27.121 14.4114C27.847 14.3185 28.5745 14.238 29.3032 14.1697L29.5081 14.5306C29.3166 15.3651 29.1166 16.1975 28.9081 17.0279ZM87.2984 6.57496C86.1791 5.94824 84.421 5.63246 82.0242 5.63246C80.8339 5.63246 79.6468 5.72429 78.4532 5.91602C77.5678 6.04491 77.4791 6.0723 76.9339 6.18991C75.8129 6.43157 75.6387 7.55452 75.6387 7.55452L75.2774 9.03674C75.0758 9.98407 75.6081 9.94218 75.8581 9.86807C76.35 9.72307 76.6162 9.57807 77.6081 9.34607C78.5613 9.13179 79.5791 8.9723 80.3807 8.97713C81.5581 8.97713 82.4613 9.10441 83.0597 9.35735C83.6581 9.61513 83.95 10.0614 83.95 10.6946L83.9049 11.1102L83.4839 11.3793C81.7903 11.4792 80.5791 11.6339 79.1242 11.8465C77.692 12.0463 76.4274 12.3943 75.3791 12.8776C74.2581 13.3722 73.4129 14.0376 72.8371 14.8819C72.2662 15.7309 71.9887 16.7572 71.9887 17.9542C71.9887 19.0981 72.3936 20.0374 73.1984 20.7592C74 21.4713 75.0436 21.8274 76.3032 21.8274C77.0968 21.8193 77.7145 21.7677 78.1549 21.6533L79.5807 21.1684L80.8016 20.4982L81.9081 19.7538L81.9274 19.778L81.8258 20.2549L81.8145 20.263L81.8194 20.2726C81.6855 20.8478 82.0371 21.3247 82.6049 21.3762L82.6081 21.3875H85.3484L85.3936 21.3714C85.9758 21.3005 86.5274 20.8285 86.65 20.2597L88.8081 10.9636L88.9226 10.2016L88.9855 9.48785C88.9871 8.17318 88.4242 7.20007 87.2984 6.57496ZM82.5484 17.0407L82.0694 17.653L80.9178 18.2491C80.431 18.4558 79.9094 18.5684 79.3807 18.581C78.6307 18.581 78.0742 18.4746 77.7016 18.2587L77.1242 17.1567C77.1242 16.5558 77.2645 16.0854 77.5468 15.7132C77.8323 15.3636 78.2694 15.0752 78.8113 14.8657C79.4446 14.6622 80.0952 14.5166 80.7549 14.4307C81.4258 14.3453 82.7549 14.1891 82.9274 14.1859L83.1355 14.5451C82.9522 15.3804 82.7564 16.2129 82.5484 17.0424V17.0407ZM73.0516 4.04874C72.6738 3.33409 72.1128 2.73251 71.4258 2.30552C70.7081 1.85763 69.8565 1.54507 68.8613 1.36463C67.7132 1.17509 66.5508 1.08453 65.3871 1.09396L59.2129 1.09557C58.8899 1.11033 58.5797 1.22672 58.3268 1.42811C58.0739 1.6295 57.8912 1.90558 57.8049 2.21691L53.6516 20.2742C53.5016 20.8865 53.9145 21.394 54.542 21.394L57.4984 21.3891C58.1274 21.394 58.7694 20.8913 58.9178 20.2726L59.9178 15.8888C60.0645 15.2782 60.6984 14.7642 61.3371 14.7691H62.1823C65.7984 14.7691 68.6 14.0264 70.6178 12.5538C72.6113 11.0651 73.6194 9.1173 73.6194 6.6958C73.6081 5.64213 73.4258 4.75118 73.0516 4.04874ZM66.6839 9.95668C65.7936 10.5963 64.55 10.9234 62.9581 10.9234H62.2242C61.5887 10.9298 61.1791 10.4142 61.321 9.79879L62.2145 5.97402C62.3468 5.36179 62.9871 4.84785 63.6258 4.8543L64.5823 4.84785C65.7178 4.85429 66.5694 5.04118 67.15 5.41979C67.7291 5.79679 68.0016 6.38968 68.0081 7.17591C68.0145 8.37457 67.5694 9.29935 66.6839 9.95668ZM98.371 2.36352C98.5049 1.74646 98.1178 1.24702 97.4839 1.25507H94.8387C94.2968 1.25507 93.8081 1.65785 93.5694 2.15085L93.4242 2.37802L93.2903 2.96285L89.5936 19.749L89.4726 20.2646L89.4774 20.2775C89.3549 20.8285 89.6952 21.2441 90.2194 21.3247L90.2645 21.3875H93.0113C93.5484 21.3875 94.0533 20.9783 94.2839 20.4756L94.4258 20.2614L98.3774 2.36513L98.3694 2.36352H98.371ZM53.7339 5.84835C53.0339 5.85479 50.1936 5.84835 50.1936 5.84835C49.5565 5.84835 48.7403 6.36068 48.3355 6.97291C48.3355 6.97291 44.1081 14.2197 43.6968 14.9479L43.2065 14.9415L41.8903 7.02124C41.7452 6.39935 41.092 5.86607 40.2823 5.86607L37.6371 5.87091C37 5.87091 36.6081 6.37679 36.7533 6.99546C36.7533 6.99546 38.7613 18.4134 39.1629 21.1007C39.35 22.583 39.1403 22.8472 39.1403 22.8472L36.5242 27.397C36.1371 28.0156 36.3468 28.5199 36.9807 28.5199L40.0387 28.5167C40.6758 28.5167 41.5113 28.0172 41.8903 27.3954L53.6532 7.52068C53.6532 7.5223 54.7855 5.82257 53.7339 5.84674V5.84835Z" fill="currentColor"/>
</svg>