<svg xmlns="http://www.w3.org/2000/svg" viewBox="0 0 87 29" fill="none">
  <path d="M34.7146 1.44839L30.3082 27.3067H37.3552L41.7648 1.44678L34.7146 1.44839ZM24.4003 1.47739L17.4967 19.111L16.7604 16.4494C15.399 13.2401 11.5356 8.63233 6.99707 5.72911L13.3126 27.2922L20.7688 27.2793L31.8678 1.47417L24.4019 1.479L24.4003 1.47739Z" fill="currentColor"/>
  <path d="M14.0859 3.32853C13.6783 1.75287 12.4909 1.28242 11.0168 1.22764H0.0902222L0 1.7432C8.50183 3.80542 14.1294 8.77409 16.4623 14.7497L14.0859 3.32853ZM56.0473 6.40575C57.8552 6.36531 59.6517 6.70222 61.3221 7.39498L61.9585 7.69464L62.9123 2.08959C61.5154 1.56598 59.3292 1.00531 56.5983 1.00531C49.6351 1.00531 44.7277 4.51109 44.689 9.53775C44.6439 13.2514 48.1851 15.3249 50.8596 16.5622C53.6065 17.8318 54.5264 18.6389 54.5152 19.7715C54.4926 21.5019 52.3241 22.2961 50.3005 22.2961C47.4778 22.2961 45.9795 21.9063 43.6643 20.9428L42.7573 20.5288L41.7648 26.3159C43.4146 27.0393 46.458 27.6611 49.6174 27.6934C57.0253 27.6934 61.8393 24.2295 61.8892 18.858C61.9214 15.9194 60.0413 13.6783 55.9684 11.8384C53.5034 10.6381 51.9954 9.84064 52.0099 8.62909C52.0099 7.55448 53.2891 6.40575 56.0473 6.40575ZM80.997 1.47737H75.5514C73.8598 1.47737 72.6031 1.93814 71.8604 3.62337L61.3962 27.3196H68.7977C68.7977 27.3196 70.0044 24.1328 70.2783 23.4368L79.3021 23.4465C79.5116 24.3487 80.1608 27.3196 80.1608 27.3196H86.6987L80.997 1.47737ZM72.3067 18.1427C72.8867 16.6589 75.1132 10.9169 75.1132 10.9169C75.0762 10.9878 75.6884 9.42175 76.0525 8.44864L76.5278 10.6768L78.1598 18.1427H72.3067Z" fill="currentColor"/>
</svg>