<svg xmlns="http://www.w3.org/2000/svg" viewBox="0 0 58 37" fill="none">
  <path d="M36.4466 1.28218C32.5869 1.27718 28.8642 2.73475 26.0066 5.36981C23.1479 2.73676 19.4256 1.2805 15.5666 1.28545H15.4667C6.92133 1.34109 0 8.40363 0 17.0976C0 25.826 6.97611 32.9082 15.5682 32.9082C19.4259 32.9135 23.1468 31.4571 26.0033 28.8238C25.4306 28.2894 24.8985 27.7118 24.4116 27.0958H27.6257C27.1424 27.6996 26.6139 28.2642 26.0452 28.7894C26.0323 28.8042 26.0162 28.8124 26.0033 28.8238C28.8629 31.4614 32.5886 32.9202 36.4514 32.9147C45.0499 32.9114 52.0179 25.8293 52.0147 17.0976V17.0895C52.0163 8.35781 45.0451 1.27891 36.4466 1.28218ZM24.5888 7.00291H27.55C27.9866 7.53963 28.391 8.10581 28.7583 8.69654H23.4803C23.8203 8.132 24.1941 7.55109 24.592 7.00291H24.5888ZM22.5588 10.3575H29.6557C29.9071 10.904 30.131 11.4702 30.3259 12.0511H21.7178C21.8032 11.8875 22.1044 11.228 22.5588 10.3575ZM6.35583 21.1247L7.29833 15.08L5.16844 21.1247H4.02778L3.87956 15.08L2.871 21.1247H1.27117L2.59711 13.1065H5.01539L5.10078 18.0271L6.73444 13.1065H9.35894L8.05072 21.1247H6.35583ZM12.0108 21.1116L12.0656 20.4718C12.0398 20.4751 11.5339 21.2458 10.3643 21.2458C9.75206 21.2458 8.76444 20.9055 8.76444 19.4295C8.76444 17.5558 10.2708 16.934 11.7047 16.934C11.9303 16.934 12.4168 16.9749 12.4168 16.9749C12.4168 16.9749 12.4716 16.8604 12.4716 16.5495C12.4716 16.0422 12.0205 15.9718 11.4018 15.9718C10.3143 15.9718 9.59578 16.2664 9.59578 16.2664L9.83744 14.8165C9.83744 14.8165 10.7074 14.4451 11.8433 14.4451C12.4313 14.4451 14.1214 14.5089 14.1214 16.4742L13.4705 21.1116H12.0108ZM18.1782 19.0695C18.1782 21.3064 16.0451 21.2115 15.6713 21.2115C14.2809 21.2115 13.8507 21.0151 13.8121 21.0053L14.0328 19.5325C14.0344 19.5195 14.7304 19.7878 15.5053 19.7878C15.9516 19.7878 16.5316 19.7436 16.5316 19.202C16.5316 18.3904 14.4565 18.5851 14.4565 16.6575C14.4565 14.9556 15.7003 14.4582 16.9279 14.4582C17.8753 14.4582 18.4569 14.5891 18.4569 14.5891L18.2474 16.0765C18.2474 16.0765 17.3484 16.0013 17.1148 16.0013C16.5252 16.0013 16.2046 16.1322 16.2046 16.5511C16.2046 17.3922 18.1782 16.9815 18.1782 19.0711V19.0695ZM20.7414 19.6569C20.8881 19.6569 21.0556 19.6045 21.1684 19.6045L20.9622 21.0347C20.7946 21.0838 20.3242 21.2524 19.7184 21.2573C18.9467 21.2638 18.3973 20.8253 18.3973 19.8304C18.3973 19.1627 19.3398 13.6613 19.3768 13.6253H21.0331L20.8655 14.6087H21.692L21.4809 16.1944H20.6029L20.1357 19.1153C20.1018 19.3476 20.1647 19.6569 20.7414 19.6569ZM24.3874 14.4238C26.2063 14.4238 26.7509 15.7771 26.7509 16.8865C26.7509 17.3284 26.5318 18.4214 26.5318 18.4214H23.1646C23.1646 18.4214 22.852 19.7682 24.6307 19.7682C25.4668 19.7682 26.3916 19.3525 26.3916 19.3525L26.1 20.9758C26.1 20.9758 25.5651 21.254 24.3487 21.254C23.0308 21.254 21.4858 20.6862 21.4858 18.3085C21.4858 16.2467 22.7199 14.4238 24.3858 14.4238H24.3874ZM28.7761 25.466H23.2532C22.913 24.9218 22.6063 24.3567 22.3348 23.774H29.6847C29.4151 24.3558 29.1117 24.9208 28.7761 25.466ZM28.4055 21.1362H26.7042L27.7385 14.612H29.2819L29.1337 15.5578C29.1337 15.5578 29.6847 14.5269 30.4258 14.5269C30.6417 14.5269 30.7464 14.5498 30.7464 14.5498C30.5257 15.0064 30.3324 15.4236 30.1294 16.5036C28.9791 16.088 28.8904 18.3495 28.4055 21.1378V21.1362ZM34.8886 21.0347C34.8886 21.0347 33.9961 21.2671 33.4386 21.2671C31.4602 21.2671 30.4548 19.8795 30.4548 17.7816C30.4548 14.6136 32.3173 12.9265 34.2297 12.9265C35.0948 12.9265 36.0969 13.3389 36.0969 13.3389L35.8263 15.1225C35.8263 15.1225 35.148 14.6415 34.3054 14.6415C33.1776 14.6415 32.1658 15.7345 32.1658 17.7211C32.1658 18.6996 32.6363 19.6127 33.814 19.6127C34.3731 19.6127 35.1834 19.1987 35.1834 19.1987L34.8886 21.0364V21.0347ZM38.8777 21.1165L38.9341 20.4702C38.9067 20.4735 38.4024 21.2442 37.2344 21.2442C36.6222 21.2442 35.6329 20.9055 35.6329 19.4295C35.6329 17.5542 37.1393 16.9324 38.5716 16.9324C38.7972 16.9324 39.2853 16.9749 39.2853 16.9749C39.2853 16.9749 39.3417 16.8604 39.3417 16.5495C39.3417 16.0422 38.8906 15.9718 38.2719 15.9718C37.1828 15.9718 36.4659 16.2664 36.4659 16.2664L36.7076 14.8165C36.7076 14.8165 37.5776 14.4451 38.715 14.4451C39.3014 14.4451 40.9915 14.5089 40.9915 16.4742L40.3406 21.1116C40.339 21.1149 38.8777 21.1149 38.8777 21.1149V21.1165ZM42.3223 21.1362H40.6209L41.6553 14.612H43.2003L43.0521 15.5578C43.0521 15.5578 43.6031 14.5269 44.3458 14.5269C44.5617 14.5269 44.6648 14.5498 44.6648 14.5498C44.4457 15.0064 44.2492 15.4236 44.0478 16.5036C42.8958 16.088 42.8072 18.3495 42.3239 21.1378L42.3223 21.1362ZM47.4021 21.1198L47.4746 20.5176C47.4746 20.5176 46.9236 21.2229 45.9296 21.2229C44.5521 21.2229 43.8754 19.8713 43.8754 18.4902C43.8754 16.3547 45.1417 14.4925 46.6594 14.4925C47.6373 14.4942 48.2608 15.3713 48.2608 15.3713L48.6201 13.118L50.2812 13.1147L49.0148 21.1198H47.4021ZM50.6807 20.894C50.6374 20.9729 50.5741 21.0385 50.4972 21.084C50.4204 21.1294 50.333 21.1531 50.2441 21.1525C50.1104 21.1525 49.9821 21.0986 49.8875 21.0025C49.793 20.9065 49.7398 20.7762 49.7398 20.6404C49.7398 20.5045 49.793 20.3742 49.8875 20.2782C49.9821 20.1821 50.1104 20.1282 50.2441 20.1282C50.3295 20.1282 50.4117 20.1511 50.4906 20.1953C50.549 20.2278 50.6003 20.2718 50.6415 20.3249C50.6828 20.3779 50.7131 20.4389 50.7307 20.504C50.7483 20.5692 50.7528 20.6374 50.7439 20.7043C50.7351 20.7713 50.713 20.8358 50.6791 20.894H50.6807ZM50.547 25.718C50.5357 25.7098 50.5261 25.6984 50.5099 25.6918C50.4817 25.6836 50.4523 25.6803 50.4229 25.682H50.3231V25.8456H50.4294C50.4809 25.8456 50.5132 25.8407 50.5325 25.8227C50.5415 25.8156 50.5487 25.8064 50.5535 25.7959C50.5583 25.7853 50.5605 25.7738 50.5599 25.7622C50.5598 25.7465 50.5554 25.7312 50.547 25.718Z" fill="currentColor"/>
  <path d="M50.895 25.6198C50.851 25.5387 50.7843 25.4726 50.7033 25.43C50.6286 25.3869 50.5443 25.3638 50.4584 25.3629C50.3714 25.3629 50.2858 25.386 50.2103 25.43C50.1307 25.4733 50.0652 25.5393 50.0218 25.6198C49.9795 25.6978 49.9578 25.7856 49.9588 25.8747C49.9599 25.9638 49.9836 26.051 50.0278 26.128C50.0719 26.205 50.1349 26.269 50.2107 26.3139C50.2864 26.3587 50.3723 26.3829 50.46 26.384C50.548 26.3838 50.6344 26.3601 50.7105 26.3153C50.7867 26.2706 50.8499 26.2063 50.894 26.129C50.938 26.0516 50.9613 25.9639 50.9614 25.8745C50.9616 25.7852 50.9387 25.6974 50.895 25.6198ZM50.5841 26.1565L50.5374 26.0698C50.5145 26.0215 50.4834 25.9778 50.4455 25.9405C50.425 25.9269 50.4008 25.92 50.3763 25.9209H50.3263V26.1549H50.2377V25.6051H50.4246C50.4708 25.6025 50.5171 25.608 50.5615 25.6214C50.5895 25.6301 50.6135 25.6487 50.6292 25.6738C50.6469 25.7 50.655 25.7262 50.655 25.7556C50.655 25.7965 50.6389 25.8293 50.6131 25.862C50.5826 25.8917 50.5425 25.9092 50.5003 25.9111C50.5196 25.9176 50.5341 25.9274 50.5454 25.9405C50.576 25.9735 50.603 26.0097 50.626 26.0485L50.6936 26.1565H50.5841ZM11.8385 18.1842C10.6237 18.1842 10.3772 18.7389 10.3772 19.1987C10.3772 19.4376 10.5125 19.8353 11.0265 19.8353C12.0254 19.8353 12.2316 18.5065 12.1994 18.2234C12.151 18.2136 12.122 18.1858 11.8385 18.1842ZM24.3923 15.9309C23.49 15.9309 23.316 16.9733 23.316 17.0829H25.1559C25.1559 17.0011 25.3283 15.9293 24.3939 15.9293L24.3923 15.9309ZM46.9478 16.1109C46.218 16.1109 45.6412 16.9716 45.6428 18.2774C45.6428 19.0727 45.9215 19.5833 46.5176 19.5833C47.4166 19.5833 47.8484 18.3936 47.8484 17.5067C47.8484 16.5282 47.5423 16.1125 46.9462 16.1125L46.9478 16.1109ZM50.605 20.4293C50.5684 20.3627 50.5143 20.3077 50.4487 20.2705C50.4015 20.2422 50.3491 20.2238 50.2947 20.2165C50.2403 20.2091 50.185 20.213 50.1321 20.2278C50.0792 20.2426 50.0297 20.2681 49.9867 20.3027C49.9437 20.3373 49.9079 20.3803 49.8816 20.4293C49.8449 20.494 49.8249 20.5672 49.8236 20.642C49.8236 20.714 49.843 20.786 49.8784 20.8531C49.9162 20.9175 49.9694 20.9712 50.0331 21.0092C50.0967 21.0472 50.1687 21.0684 50.2425 21.0707C50.3167 21.07 50.3893 21.0495 50.4532 21.0113C50.5171 20.9731 50.57 20.9185 50.6066 20.8531C50.6433 20.7883 50.6625 20.7148 50.6622 20.6401C50.6619 20.5654 50.6422 20.4937 50.605 20.4293ZM50.3714 20.9218L50.3231 20.8367C50.301 20.7884 50.2704 20.7446 50.2329 20.7074C50.2122 20.6928 50.1871 20.6859 50.162 20.6878H50.1136V20.9202H50.0234V20.3704H50.2103C50.2748 20.3704 50.3215 20.3769 50.3489 20.3884C50.3758 20.399 50.3992 20.4172 50.4165 20.4407C50.4342 20.4641 50.4433 20.4931 50.4423 20.5225C50.4423 20.5618 50.4262 20.5962 50.3988 20.6256C50.3714 20.6584 50.3328 20.6714 50.286 20.6764C50.3037 20.6825 50.3201 20.6919 50.3344 20.7042C50.3553 20.7271 50.3827 20.7598 50.4133 20.8122L50.4794 20.9218H50.3714ZM38.7086 18.1842C37.4938 18.1842 37.2473 18.7389 37.2473 19.1987C37.2473 19.4376 37.381 19.8353 37.8966 19.8353C38.8955 19.8353 39.1001 18.5065 39.0695 18.2234C39.0211 18.2136 38.9905 18.1858 38.7086 18.1842Z" fill="currentColor"/>
  <path d="M50.3359 20.4833C50.326 20.4711 50.3132 20.4616 50.2989 20.4555C50.27 20.4473 50.2402 20.4434 50.2103 20.444V20.4457H50.1136V20.6109H50.2199C50.2699 20.6109 50.3037 20.606 50.323 20.5897C50.3313 20.5816 50.3378 20.572 50.3422 20.5613C50.3467 20.5506 50.3489 20.5391 50.3488 20.5275C50.3494 20.5117 50.3449 20.4962 50.3359 20.4833Z" fill="currentColor"/>
</svg>