<svg xmlns="http://www.w3.org/2000/svg" width="22" height="22" viewBox="0 0 22 22" fill="none">
  <g clip-path="url(#clip0_5773_5895)">
    <path d="M11.3195 10.9002V10.8713C11.3135 10.8811 11.3072 10.8908 11.3008 10.9002H11.3195Z" fill="currentColor"/>
    <path d="M18.5167 2.4873H2.72166C1.96566 2.4873 1.35254 3.0858 1.35254 3.82343V19.8033C1.35254 20.5406 1.96566 21.1391 2.72166 21.1391H18.5167C19.2738 21.1391 19.8869 20.5402 19.8869 19.8033V3.82343C19.8869 3.08543 19.2734 2.4873 18.5167 2.4873ZM6.97041 18.1012H4.17104V9.67905H6.97041V18.1012ZM5.57091 8.52855H5.55216C4.61316 8.52855 4.00566 7.88168 4.00566 7.07355C4.00566 6.24743 4.63191 5.61855 5.58929 5.61855C6.54704 5.61855 7.13616 6.24743 7.15491 7.07355C7.15491 7.88168 6.54666 8.52855 5.57091 8.52855ZM17.065 18.1012H14.2657V13.5944C14.2657 12.4627 13.8607 11.6902 12.8478 11.6902C12.0745 11.6902 11.614 12.2111 11.4112 12.7143C11.3373 12.8939 11.3193 13.1452 11.3193 13.3972V18.1008H8.51991C8.51991 18.1008 8.55666 10.4681 8.51991 9.67868H11.3193V10.8708C11.6913 10.2971 12.3565 9.47993 13.8427 9.47993C15.6843 9.47993 17.0654 10.6841 17.0654 13.2712L17.065 18.1012Z" fill="currentColor"/>
  </g>
  <defs>
    <clipPath id="clip0_5773_5895">
      <rect width="21.2599" height="21.2599" fill="currentColor" transform="translate(0.0419922 0.737549)"/>
    </clipPath>
  </defs>
</svg>