<svg xmlns="http://www.w3.org/2000/svg" width="22" height="22" viewBox="0 0 22 22" fill="none">
  <path d="M16.7293 11.3164H5.05591C3.20041 11.3164 1.69629 12.822 1.69629 14.6772V17.3775C1.69629 19.2327 3.20041 20.7379 5.05591 20.7379H16.7293C18.5844 20.7379 20.0889 19.2327 20.0889 17.3775V14.6772C20.0889 12.822 18.5844 11.3164 16.7293 11.3164ZM7.50841 13.4187H6.42316V18.8112H5.37466V13.4187H4.29016V12.5014H7.50841V13.4187ZM10.574 18.8112H9.64404V18.3012C9.47116 18.4898 9.29304 18.6338 9.10704 18.7309C8.92104 18.8322 8.74141 18.8794 8.56666 18.8794C8.35066 18.8794 8.19016 18.8108 8.08029 18.6713C7.97229 18.5322 7.91716 18.3259 7.91716 18.0473V14.1559H8.84716V17.727C8.84716 17.8373 8.86779 17.9164 8.90491 17.9655C8.94504 18.0162 9.00879 18.0394 9.09616 18.0394C9.16366 18.0394 9.25066 18.0072 9.35529 17.9419C9.46066 17.8759 9.55666 17.7934 9.64404 17.6914V14.1555H10.574V18.8112ZM13.9505 17.85C13.9505 18.1789 13.8774 18.4317 13.7315 18.6079C13.5864 18.7842 13.3742 18.8708 13.0993 18.8708C12.9163 18.8708 12.7535 18.8378 12.6122 18.7695C12.47 18.702 12.3362 18.5982 12.2143 18.4542V18.8108H11.273V12.5014H12.2143V14.5335C12.3403 14.3929 12.4734 14.2838 12.6125 14.2107C12.7547 14.136 12.8975 14.1 13.0423 14.1C13.3367 14.1 13.5609 14.1983 13.7162 14.3967C13.8722 14.595 13.9498 14.8857 13.9498 15.2667V17.85H13.9505ZM17.1767 16.5957H15.3969V17.4728C15.3969 17.7173 15.4269 17.8875 15.4877 17.9824C15.5499 18.0777 15.6545 18.1242 15.8034 18.1242C15.9579 18.1242 16.0648 18.084 16.127 18.0038C16.187 17.9228 16.2193 17.7465 16.2193 17.4728V17.2609H17.1767V17.4998C17.1767 17.9768 17.0608 18.3364 16.8257 18.579C16.5943 18.8194 16.2455 18.9387 15.782 18.9387C15.3647 18.9387 15.0358 18.8115 14.7969 18.5558C14.5588 18.3015 14.4373 17.9487 14.4373 17.5002V15.4092C14.4373 15.0068 14.57 14.6757 14.8337 14.4218C15.0965 14.1679 15.4352 14.0412 15.8518 14.0412C16.2782 14.0412 16.6055 14.1585 16.8339 14.394C17.0623 14.6299 17.1767 14.9674 17.1767 15.4088V16.5957Z" fill="currentColor"/>
  <path d="M15.812 14.855C15.6635 14.855 15.5577 14.8966 15.4932 14.9836C15.4272 15.0654 15.3965 15.2052 15.3965 15.4006V15.8712H16.2189V15.4006C16.2189 15.2052 16.1859 15.065 16.1206 14.9836C16.058 14.897 15.9534 14.855 15.812 14.855Z" fill="currentColor"/>
  <path d="M12.6037 14.8389C12.5377 14.8389 12.471 14.8535 12.4068 14.8839C12.3416 14.9135 12.2778 14.9626 12.2148 15.0264V17.9262C12.2895 18.0012 12.3633 18.059 12.4353 18.092C12.507 18.1239 12.5812 18.1419 12.6603 18.1419C12.7747 18.1419 12.858 18.1089 12.9116 18.0421C12.9645 17.9761 12.9915 17.8707 12.9915 17.7219V15.3177C12.9915 15.1595 12.96 15.041 12.894 14.9596C12.8257 14.8794 12.729 14.8389 12.6037 14.8389Z" fill="currentColor"/>
  <path d="M6.58406 9.69931H7.76306V6.81556L9.13594 2.74756H7.93744L7.20769 5.52631H7.13344L6.36731 2.74756H5.17969L6.58406 6.94531V9.69931Z" fill="currentColor"/>
  <path d="M10.7335 9.82877C11.2097 9.82877 11.5832 9.70389 11.8555 9.45414C12.1258 9.20327 12.2612 8.8609 12.2612 8.42214V5.77314C12.2612 5.38277 12.1228 5.06139 11.8472 4.81352C11.5697 4.56639 11.2142 4.44189 10.7807 4.44189C10.3045 4.44189 9.92533 4.55964 9.64333 4.79477C9.36208 5.02989 9.2207 5.34527 9.2207 5.74389V8.40189C9.2207 8.83802 9.35833 9.18302 9.6332 9.44177C9.90808 9.6994 10.2756 9.82877 10.7335 9.82877ZM10.2992 5.70489C10.2992 5.59352 10.3393 5.50352 10.4177 5.43302C10.4991 5.36402 10.6022 5.33064 10.7305 5.33064C10.8688 5.33064 10.981 5.36402 11.0665 5.43302C11.1516 5.50352 11.194 5.59352 11.194 5.70489V8.49902C11.194 8.63589 11.1523 8.74465 11.068 8.82302C10.9843 8.90177 10.8718 8.94039 10.7305 8.94039C10.5921 8.94039 10.4852 8.90289 10.4102 8.82414C10.3363 8.74727 10.2988 8.63927 10.2988 8.49864L10.2992 5.70489Z" fill="currentColor"/>
  <path d="M13.8422 9.77453C14.0391 9.77453 14.2412 9.71828 14.4493 9.61028C14.6597 9.50078 14.8611 9.34065 15.0527 9.13178V9.6999H16.1001V4.57178H15.0527V8.46428C14.9552 8.57565 14.8468 8.66715 14.7306 8.7399C14.6121 8.8119 14.5146 8.8479 14.4377 8.8479C14.3395 8.8479 14.2671 8.8209 14.2247 8.76503C14.1816 8.7114 14.1572 8.62365 14.1572 8.50328V4.57178H13.1113V8.85765C13.1113 9.16328 13.1728 9.39165 13.2943 9.54315C13.4181 9.6969 13.5988 9.77453 13.8422 9.77453Z" fill="currentColor"/>
</svg>