<svg xmlns="http://www.w3.org/2000/svg" viewBox="0 0 32 33" fill="none">
  <g clip-path="url(#clip0_4024_3254)">
    <path d="M26.0002 17.2627L16.0002 27.1667L6.00024 17.2627C5.34065 16.6208 4.8211 15.8493 4.4743 14.9968C4.12751 14.1443 3.96099 13.2293 3.98522 12.3092C4.00946 11.3892 4.22392 10.4842 4.61512 9.65111C5.00631 8.81804 5.56575 8.075 6.25822 7.46876C6.95069 6.86253 7.76118 6.40624 8.63865 6.12863C9.51613 5.85102 10.4416 5.7581 11.3567 5.85573C12.2719 5.95335 13.1569 6.2394 13.9561 6.69587C14.7552 7.15233 15.4512 7.76933 16.0002 8.50799C16.5516 7.77469 17.2484 7.16309 18.047 6.71146C18.8457 6.25984 19.7289 5.97792 20.6415 5.88335C21.5541 5.78878 22.4763 5.88359 23.3506 6.16185C24.2249 6.44011 25.0323 6.89582 25.7223 7.50048C26.4123 8.10513 26.9701 8.8457 27.3608 9.67585C27.7515 10.506 27.9666 11.4078 27.9927 12.3249C28.0187 13.242 27.8553 14.1546 27.5124 15.0057C27.1696 15.8567 26.6548 16.6278 26.0002 17.2707" stroke="currentColor" stroke-width="1.5" stroke-linecap="round" stroke-linejoin="round"/>
    <path d="M15.9998 8.5L11.6091 12.8907C11.3592 13.1407 11.2188 13.4798 11.2188 13.8333C11.2188 14.1869 11.3592 14.526 11.6091 14.776L12.3331 15.5C13.2531 16.42 14.7465 16.42 15.6665 15.5L16.9998 14.1667C17.7955 13.371 18.8746 12.924 19.9998 12.924C21.125 12.924 22.2041 13.371 22.9998 14.1667L25.9998 17.1667" stroke="currentColor" stroke-width="1.5" stroke-linecap="round" stroke-linejoin="round"/>
    <path d="M16.6665 21.1667L19.3332 23.8334" stroke="currentColor" stroke-width="1.5" stroke-linecap="round" stroke-linejoin="round"/>
    <path d="M20 17.8333L22.6667 20.4999" stroke="currentColor" stroke-width="1.5" stroke-linecap="round" stroke-linejoin="round"/>
  </g>
  <defs>
    <clipPath id="clip0_4024_3254">
      <rect width="32" height="32" fill="currentColor" transform="translate(0 0.5)"/>
    </clipPath>
  </defs>
</svg>