<svg xmlns="http://www.w3.org/2000/svg" viewBox="0 0 177 29" fill="none">
  <title>scan.com</title>
  <path d="M15.5827 24.8072C16.1206 24.8072 16.5566 24.3712 16.5566 23.8333C16.5566 23.2954 16.1206 22.8594 15.5827 22.8594C15.0448 22.8594 14.6088 23.2954 14.6088 23.8333C14.6088 24.3712 15.0448 24.8072 15.5827 24.8072Z" fill="currentColor"/>
  <path d="M13.2696 25.2941C12.9855 25.5782 12.9855 26.0245 13.2696 26.3086C13.5536 26.5926 14 26.5926 14.2841 26.3086C14.5681 26.0245 14.5681 25.5782 14.2841 25.2941C14 25.01 13.5536 25.01 13.2696 25.2941Z" fill="currentColor"/>
  <path d="M11.6464 27.445C11.4841 27.6073 11.4841 27.8914 11.6464 28.0537C11.8087 28.216 12.0928 28.216 12.2551 28.0537C12.4174 27.8914 12.4174 27.6073 12.2551 27.445C12.0928 27.2827 11.8087 27.2827 11.6464 27.445Z" fill="currentColor"/>
  <path d="M14.4464 22.6565C14.8522 22.2507 14.8522 21.642 14.4464 21.2768C14.0406 20.871 13.4319 20.871 13.0667 21.2768C12.6609 21.6826 12.6609 22.2913 13.0667 22.6565C13.4319 23.0623 14.0406 23.0623 14.4464 22.6565Z" fill="currentColor"/>
  <path d="M11.4029 23.3869C11.1188 23.6709 11.1188 24.1173 11.4029 24.4014C11.6869 24.6854 12.1333 24.6854 12.4174 24.4014C12.7014 24.1173 12.7014 23.6709 12.4174 23.3869C12.0927 23.1028 11.6463 23.1028 11.4029 23.3869Z" fill="currentColor"/>
  <path d="M10.0232 26.1868C10.2473 26.1868 10.429 26.0052 10.429 25.781C10.429 25.5569 10.2473 25.3752 10.0232 25.3752C9.79911 25.3752 9.61743 25.5569 9.61743 25.781C9.61743 26.0052 9.79911 26.1868 10.0232 26.1868Z" fill="currentColor"/>
  <path d="M12.6203 19.4506C12.2145 19.0448 11.6058 19.0448 11.2406 19.4506C10.8348 19.8564 10.8348 20.4651 11.2406 20.8303C11.6464 21.2361 12.2551 21.2361 12.6203 20.8303C12.9856 20.4245 12.9856 19.8158 12.6203 19.4506Z" fill="currentColor"/>
  <path d="M9.49564 21.4797C9.21158 21.7638 9.21158 22.2102 9.49564 22.4942C9.77969 22.7783 10.2261 22.7783 10.5101 22.4942C10.7942 22.2102 10.7942 21.7638 10.5101 21.4797C10.2261 21.2362 9.77969 21.2362 9.49564 21.4797Z" fill="currentColor"/>
  <path d="M7.79129 23.5492C7.62898 23.7115 7.62898 23.9956 7.79129 24.1579C7.95361 24.3202 8.23767 24.3202 8.39999 24.1579C8.56231 23.9956 8.56231 23.7115 8.39999 23.5492C8.19709 23.3869 7.95361 23.3869 7.79129 23.5492Z" fill="currentColor"/>
  <path d="M10.7536 17.5841C10.3478 17.1783 9.73915 17.1783 9.37393 17.5841C8.96813 17.9899 8.96813 18.5986 9.37393 18.9638C9.77972 19.3696 10.3884 19.3696 10.7536 18.9638C11.1594 18.5986 11.1594 17.9899 10.7536 17.5841Z" fill="currentColor"/>
  <path d="M7.58841 19.6129C7.30435 19.897 7.30435 20.3434 7.58841 20.6274C7.87247 20.9115 8.31884 20.9115 8.6029 20.6274C8.88696 20.3434 8.88696 19.897 8.6029 19.6129C8.31884 19.3289 7.87247 19.3289 7.58841 19.6129Z" fill="currentColor"/>
  <path d="M5.84354 21.6015C5.68122 21.7638 5.68122 22.0479 5.84354 22.2102C6.00586 22.3725 6.28992 22.3725 6.45224 22.2102C6.61456 22.0479 6.61456 21.7638 6.45224 21.6015C6.28992 21.4392 6.00586 21.4392 5.84354 21.6015Z" fill="currentColor"/>
  <path d="M9.77976 5.57249C10.1856 5.16669 10.1856 4.55799 9.77976 4.19278C9.37396 3.78698 8.76527 3.78698 8.40005 4.19278C7.99425 4.59857 7.99425 5.20727 8.40005 5.57249C8.76527 5.97828 9.41454 5.97828 9.77976 5.57249Z" fill="currentColor"/>
  <path d="M11.403 3.42163C11.687 3.13757 11.687 2.69119 11.403 2.40714C11.1189 2.12308 10.6725 2.12308 10.3885 2.40714C10.1044 2.69119 10.1044 3.13757 10.3885 3.42163C10.6725 3.70569 11.1189 3.70569 11.403 3.42163Z" fill="currentColor"/>
  <path d="M13.0261 1.27096C13.1884 1.10864 13.1884 0.824585 13.0261 0.662266C12.8638 0.499948 12.5797 0.499948 12.4174 0.662266C12.2551 0.824585 12.2551 1.10864 12.4174 1.27096C12.5797 1.43328 12.8638 1.43328 13.0261 1.27096Z" fill="currentColor"/>
  <path d="M10.2261 6.01879C9.8203 6.42458 9.8203 7.03328 10.2261 7.3985C10.6319 7.80429 11.2406 7.80429 11.6058 7.3985C12.0116 6.9927 12.0116 6.384 11.6058 6.01879C11.2406 5.65357 10.6319 5.65357 10.2261 6.01879Z" fill="currentColor"/>
  <path d="M13.3102 5.32885C13.5942 5.0448 13.5942 4.59842 13.3102 4.31436C13.0261 4.0303 12.5797 4.0303 12.2957 4.31436C12.0116 4.59842 12.0116 5.0448 12.2957 5.32885C12.5797 5.61291 13.0261 5.61291 13.3102 5.32885Z" fill="currentColor"/>
  <path d="M14.974 3.21872C15.1363 3.0564 15.1363 2.77234 14.974 2.61002C14.8116 2.4477 14.5276 2.4477 14.3653 2.61002C14.203 2.77234 14.203 3.0564 14.3653 3.21872C14.5276 3.38103 14.8116 3.38103 14.974 3.21872Z" fill="currentColor"/>
  <path d="M12.0928 9.26511C12.4986 9.67091 13.1073 9.67091 13.4725 9.26511C13.8783 8.85932 13.8783 8.25062 13.4725 7.8854C13.0667 7.47961 12.458 7.47961 12.0928 7.8854C11.7276 8.2912 11.687 8.8999 12.0928 9.26511Z" fill="currentColor"/>
  <path d="M15.1769 7.19555C15.4609 6.9115 15.4609 6.46512 15.1769 6.18106C14.8928 5.897 14.4464 5.897 14.1624 6.18106C13.8783 6.46512 13.8783 6.9115 14.1624 7.19555C14.487 7.47961 14.9334 7.47961 15.1769 7.19555Z" fill="currentColor"/>
  <path d="M16.9217 5.16671C17.084 5.0044 17.084 4.72034 16.9217 4.55802C16.7594 4.3957 16.4753 4.3957 16.313 4.55802C16.1507 4.72034 16.1507 5.0044 16.313 5.16671C16.4753 5.32903 16.7188 5.32903 16.9217 5.16671Z" fill="currentColor"/>
  <path d="M13.9188 11.1318C14.3246 11.5376 14.9333 11.5376 15.2985 11.1318C15.7043 10.726 15.7043 10.1173 15.2985 9.7521C14.8927 9.3463 14.284 9.3463 13.9188 9.7521C13.5536 10.1173 13.5536 10.726 13.9188 11.1318Z" fill="currentColor"/>
  <path d="M17.0841 9.10278C17.3682 8.81872 17.3682 8.37235 17.0841 8.08829C16.8 7.80423 16.3537 7.80423 16.0696 8.08829C15.7856 8.37235 15.7856 8.81872 16.0696 9.10278C16.3537 9.38684 16.8 9.38684 17.0841 9.10278Z" fill="currentColor"/>
  <path d="M18.8289 7.07394C18.9913 6.91162 18.9913 6.62756 18.8289 6.46525C18.6666 6.30293 18.3826 6.30293 18.2203 6.46525C18.0579 6.62756 18.0579 6.91162 18.2203 7.07394C18.4231 7.23626 18.6666 7.23626 18.8289 7.07394Z" fill="currentColor"/>
  <path d="M15.9478 10.7667L13.5942 13.1203C14.0812 12.6333 14.0812 11.8217 13.5942 11.3348C13.1072 10.8478 12.2957 10.8478 11.8087 11.3348C12.2957 10.8478 12.2957 10.0362 11.8087 9.54927C11.3217 9.06231 10.5101 9.06231 10.0232 9.54927C10.5101 9.06231 10.5101 8.25072 10.0232 7.76376C9.53623 7.27681 8.72464 7.27681 8.23769 7.76376C8.72464 7.27681 8.72464 6.46521 8.23769 5.97825C7.75073 5.4913 6.93913 5.4913 6.45218 5.97825L1.58261 10.7667C-0.405793 12.7551 -0.405793 15.9609 1.58261 17.9493C3.57102 19.9377 6.77681 19.9377 8.76522 17.9493L11.1188 15.5956C10.6319 16.0826 10.6319 16.8942 11.1188 17.3812C11.6058 17.8681 12.4174 17.8681 12.9044 17.3812C12.4174 17.8681 12.4174 18.6797 12.9044 19.1667C13.3913 19.6536 14.2029 19.6536 14.6899 19.1667C14.2029 19.6536 14.2029 20.4652 14.6899 20.9522C15.1768 21.4391 15.9884 21.4391 16.4754 20.9522C15.9884 21.4391 15.9884 22.2507 16.4754 22.7377C16.9623 23.2246 17.7739 23.2246 18.2609 22.7377L23.1304 17.9493C25.1188 15.9609 25.1188 12.7551 23.1304 10.7667C21.142 8.77826 17.9362 8.77826 15.9478 10.7667ZM6.97971 11.3348C6.81739 11.4971 6.53334 11.4971 6.37102 11.3348C6.2087 11.1725 6.2087 10.8884 6.37102 10.7261C6.53334 10.5638 6.81739 10.5638 6.97971 10.7261C7.14203 10.929 7.14203 11.1725 6.97971 11.3348ZM7.71015 8.98115C7.50725 9.18405 7.18261 9.18405 6.97971 8.98115C6.77681 8.77826 6.77681 8.45362 6.97971 8.25072C7.18261 8.04782 7.50725 8.04782 7.71015 8.25072C7.91305 8.41304 7.91305 8.77826 7.71015 8.98115ZM8.76522 13.1609C8.6029 13.3232 8.31884 13.3232 8.15652 13.1609C7.9942 12.9985 7.9942 12.7145 8.15652 12.5522C8.31884 12.3898 8.6029 12.3898 8.76522 12.5522C8.92754 12.7145 8.92754 12.958 8.76522 13.1609ZM9.49566 10.7667C9.29276 10.9696 8.96812 10.9696 8.76522 10.7667C8.56232 10.5638 8.56232 10.2391 8.76522 10.0362C8.96812 9.83333 9.29276 9.83333 9.49566 10.0362C9.69855 10.2391 9.69855 10.5638 9.49566 10.7667ZM11.2812 12.5522C11.0783 12.7551 10.7536 12.7551 10.5507 12.5522C10.3478 12.3493 10.3478 12.0246 10.5507 11.8217C10.7536 11.6188 11.0783 11.6188 11.2812 11.8217C11.4841 12.0246 11.4841 12.3493 11.2812 12.5522ZM14.1217 16.8942C13.9188 17.0971 13.5942 17.0971 13.3913 16.8942C13.1884 16.6913 13.1884 16.3667 13.3913 16.1638C13.5942 15.9609 13.9188 15.9609 14.1217 16.1638C14.3652 16.3667 14.3652 16.6913 14.1217 16.8942ZM15.9478 18.6797C15.7449 18.8826 15.4203 18.8826 15.2174 18.6797C15.0145 18.4768 15.0145 18.1522 15.2174 17.9493C15.4203 17.7464 15.7449 17.7464 15.9478 17.9493C16.1507 18.1522 16.1507 18.4768 15.9478 18.6797ZM16.5159 16.1638C16.3536 16.3261 16.0696 16.3261 15.9072 16.1638C15.7449 16.0014 15.7449 15.7174 15.9072 15.5551C16.0696 15.3927 16.3536 15.3927 16.5159 15.5551C16.6783 15.7174 16.6783 16.0014 16.5159 16.1638ZM17.7333 20.5058C17.5304 20.7087 17.2058 20.7087 17.0029 20.5058C16.8 20.3029 16.8 19.9783 17.0029 19.7754C17.2058 19.5725 17.5304 19.5725 17.7333 19.7754C17.9362 19.9377 17.9362 20.2623 17.7333 20.5058ZM18.3015 17.9493C18.1391 18.1116 17.8551 18.1116 17.6928 17.9493C17.5304 17.787 17.5304 17.5029 17.6928 17.3406C17.8551 17.1783 18.1391 17.1783 18.3015 17.3406C18.4638 17.5029 18.4638 17.787 18.3015 17.9493Z" fill="currentColor"/>
  <path d="M41.229 12.5116C37.0899 11.8624 36.7653 11.3348 36.7653 10.6856C36.7653 9.75222 38.0638 9.1841 40.0928 9.1841C42.3247 9.1841 44.0696 10.1986 44.6783 11.7812C44.7189 11.8624 44.8 11.9435 44.9218 11.9029L48.4522 10.929C48.4928 10.929 48.5334 10.8885 48.574 10.8479C48.6145 10.8073 48.6145 10.7261 48.574 10.6856C47.7218 7.72323 44.1508 5.57251 40.0928 5.57251C35.629 5.57251 32.6667 7.64207 32.6667 10.7261C32.6667 13.6885 34.858 15.1493 40.7827 16.0421C43.8667 16.4885 44.9624 16.9754 44.9624 17.9899C44.9624 18.9232 43.4609 19.5319 41.0667 19.5319C38.3073 19.5319 36.5624 18.4363 35.9943 16.2856C35.9537 16.1638 35.8725 16.1232 35.7508 16.1232L32.0986 16.9754C31.9769 17.016 31.9363 17.0971 31.9363 17.2189C32.6667 20.8305 36.2377 23.1435 41.0667 23.1435C45.8957 23.1435 49.1015 21.074 49.1015 17.9899C49.0609 14.9464 46.8696 13.4044 41.229 12.5116Z" fill="currentColor"/>
  <path d="M96.2957 5.5725C94.5914 5.61308 92.1972 6.26235 90.9798 7.9667C90.9392 7.9667 90.9392 7.92612 90.9392 7.92612V6.26235C90.9392 6.14061 90.858 6.05945 90.7363 6.05945H87.0029C86.8812 6.05945 86.8 6.14061 86.8 6.26235V22.4942C86.8 22.616 86.8812 22.6971 87.0029 22.6971H90.858C90.9798 22.6971 91.0609 22.616 91.0609 22.4942V13.6479C91.0609 11.1725 92.9276 9.50873 95.687 9.50873C98.3653 9.50873 99.9479 11.0508 99.9479 13.6479V22.5348C99.9479 22.6566 100.029 22.7377 100.151 22.7377H104.006C104.128 22.7377 104.209 22.6566 104.209 22.5348V13.0797C104.209 11.0102 103.478 9.14351 102.18 7.84496C100.759 6.34351 98.5682 5.53192 96.2957 5.5725Z" fill="currentColor"/>
  <path d="M139.31 5.57251C134.035 5.57251 130.099 9.34642 130.099 14.3377C130.099 19.329 134.075 23.1029 139.31 23.1029C141.907 23.1029 144.261 22.2102 145.925 20.587C147.588 18.9638 148.522 16.7725 148.522 14.3377C148.522 9.34642 144.545 5.57251 139.31 5.57251ZM139.31 19.2885C136.388 19.2885 134.359 17.2595 134.359 14.3377C134.359 11.416 136.388 9.387 139.31 9.387C142.232 9.387 144.261 11.416 144.261 14.3377C144.261 17.2595 142.191 19.2885 139.31 19.2885Z" fill="currentColor"/>
  <path d="M169.623 5.57251C167.472 5.57251 165.565 6.3841 164.226 7.84497C163.09 6.46526 160.98 5.57251 158.991 5.57251C157.043 5.57251 154.933 6.62758 154.243 8.00729H154.203L154.162 7.96671V6.26236C154.162 6.14062 154.081 6.05947 153.959 6.05947H150.47C150.348 6.05947 150.267 6.14062 150.267 6.26236V22.4942C150.267 22.616 150.348 22.6971 150.47 22.6971H154.243C154.365 22.6971 154.446 22.616 154.446 22.4942V13.2015C154.446 10.929 155.907 9.42758 158.098 9.42758C160.209 9.42758 161.629 10.9696 161.629 13.2015V22.4942C161.629 22.616 161.71 22.6971 161.832 22.6971H165.484C165.606 22.6971 165.687 22.616 165.687 22.4942V13.2015C165.687 10.8885 167.067 9.42758 169.299 9.42758C171.49 9.42758 172.87 10.8885 172.87 13.2015V22.4942C172.87 22.616 172.951 22.6971 173.072 22.6971H176.806C176.927 22.6971 177.009 22.616 177.009 22.4942V12.4305C177.049 8.41309 174.006 5.57251 169.623 5.57251Z" fill="currentColor"/>
  <path d="M108.632 22.8999C110.044 22.8999 111.188 21.7553 111.188 20.3434C111.188 18.9315 110.044 17.7869 108.632 17.7869C107.22 17.7869 106.075 18.9315 106.075 20.3434C106.075 21.7553 107.22 22.8999 108.632 22.8999Z" fill="currentColor"/>
  <path d="M67.4029 17.0564L63.7913 16.0419C63.6695 16.0013 63.5884 16.0825 63.5478 16.1636C62.8579 18.1926 61.3565 19.2883 59.1246 19.2883C56.3246 19.2883 54.3768 17.2593 54.3768 14.3375C54.3768 11.4158 56.3246 9.38681 59.1246 9.38681C61.0724 9.38681 62.6145 10.3201 63.3449 12.0245C63.3855 12.1057 63.5072 12.1868 63.5884 12.1462L67.2405 11.0506C67.3623 11.01 67.4029 10.8883 67.3623 10.7665C66.1855 7.56072 63.0202 5.53174 59.1246 5.53174C53.971 5.53174 50.0753 9.30565 50.0753 14.297C50.0753 19.2883 53.971 23.0622 59.1246 23.0622C63.2637 23.0622 66.5913 20.7897 67.5652 17.2593C67.5652 17.2187 67.5246 17.097 67.4029 17.0564Z" fill="currentColor"/>
  <path d="M76.858 5.57251C72.8812 5.57251 69.6754 7.68266 68.7826 10.8073C68.7421 10.929 68.8232 11.0102 68.9044 11.0508L72.516 12.1464C72.6377 12.187 72.7189 12.1058 72.7595 12.0247C73.3276 10.2798 74.829 9.26526 76.8986 9.26526C78.7653 9.26526 79.9015 9.95512 79.9015 11.0102C79.9015 11.5783 79.6174 12.1464 76.0464 12.6334C70.8522 13.4044 68.7421 14.987 68.7421 18.1116C68.7421 21.1551 71.1769 23.1435 74.9913 23.1435C77.0609 23.1435 79.1711 22.3319 80.429 20.9928V22.4537C80.429 22.5754 80.5102 22.6566 80.6319 22.6566H84.1624C84.2841 22.6566 84.3653 22.5754 84.3653 22.4537V11.7812C84.4058 7.96671 81.5247 5.57251 76.858 5.57251ZM80.2667 16.529C80.2667 18.1116 78.1566 19.4102 75.6 19.4102C72.8812 19.4102 72.8812 18.3145 72.8812 17.8682C72.8812 16.8537 73.9363 16.2856 76.7363 15.7986C78.6435 15.474 79.6174 15.1493 80.1855 14.7435H80.2261C80.2261 14.7435 80.2261 14.7435 80.2667 14.7435C80.2667 14.7435 80.3073 14.7435 80.3073 14.7841V16.529H80.2667Z" fill="currentColor"/>
  <path d="M128.881 17.0564L125.27 16.0419C125.148 16.0013 125.067 16.0825 125.026 16.1636C124.336 18.1926 122.835 19.2883 120.603 19.2883C117.803 19.2883 115.855 17.2593 115.855 14.3375C115.855 11.4158 117.803 9.38681 120.603 9.38681C122.551 9.38681 124.093 10.3201 124.823 12.0245C124.864 12.1057 124.985 12.1868 125.067 12.1462L128.719 11.0506C128.841 11.01 128.881 10.8883 128.841 10.7665C127.664 7.56072 124.499 5.53174 120.603 5.53174C115.449 5.53174 111.554 9.30565 111.554 14.297C111.554 19.2883 115.449 23.0622 120.603 23.0622C124.742 23.0622 128.07 20.7897 129.043 17.2593C129.043 17.2187 129.003 17.097 128.881 17.0564Z" fill="currentColor"/>
</svg>