<svg xmlns="http://www.w3.org/2000/svg" width="24" height="24" viewBox="0 0 24 24" fill="none">
  <circle cx="10" cy="10" r="7" stroke="currentColor" stroke-width="1.5" stroke-linecap="round" stroke-linejoin="round"/>
  <path d="M21 21L15 15" stroke="currentColor" stroke-width="1.5" stroke-linecap="round" stroke-linejoin="round"/>
  <path d="M12 7H9.5C8.67157 7 8 7.67157 8 8.5C8 9.32843 8.67157 10 9.5 10H10.5C11.3284 10 12 10.6716 12 11.5C12 12.3284 11.3284 13 10.5 13H8" stroke="currentColor" stroke-width="1.5" stroke-linecap="round" stroke-linejoin="round"/>
  <path d="M9.25 13V12.25C8.83579 12.25 8.5 12.5858 8.5 13H9.25ZM9.25 14H8.5C8.5 14.4142 8.83579 14.75 9.25 14.75V14ZM10.75 13H11.5C11.5 12.5858 11.1642 12.25 10.75 12.25V13ZM10.75 14V14.75C11.1642 14.75 11.5 14.4142 11.5 14H10.75ZM10.75 6C10.75 5.58579 10.4142 5.25 10 5.25C9.58579 5.25 9.25 5.58579 9.25 6H10.75ZM9.25 7C9.25 7.41421 9.58579 7.75 10 7.75C10.4142 7.75 10.75 7.41421 10.75 7H9.25ZM8.5 13V14H10V13H8.5ZM10.75 12.25H9.25V13.75H10.75V12.25ZM11.5 14V13H10V14H11.5ZM9.25 14.75H10.75V13.25H9.25V14.75ZM9.25 6V7H10.75V6H9.25Z" fill="currentColor"/>
</svg>