<svg xmlns="http://www.w3.org/2000/svg" viewBox="0 0 20 21" fill="none">
  <g clip-path="url(#clip0_5773_5796)">
    <path d="M28.5809 19.1875H-5.73633V20.7239H28.5809V19.1875Z" fill="#CB001C"/>
    <path d="M28.5809 17.6514H-5.73633V19.1877H28.5809V17.6514Z" fill="white"/>
    <path d="M28.5809 16.1155H-5.73633V17.6511H28.5809V16.1155Z" fill="#CB001C"/>
    <path d="M28.5809 14.5791H-5.73633V16.1156H28.5809V14.5791Z" fill="white"/>
    <path d="M28.5809 13.0427H-5.73633V14.579H28.5809V13.0427Z" fill="#CB001C"/>
    <path d="M28.5809 11.5073H-5.73633V13.0428H28.5809V11.5073Z" fill="white"/>
    <path d="M28.5809 9.97095H-5.73633V11.5074H28.5809V9.97095Z" fill="#CB001C"/>
    <path d="M28.5809 8.43457H-5.73633V9.96996H28.5809V8.43457Z" fill="white"/>
    <path d="M28.5809 6.89795H-5.73633V8.43441H28.5809V6.89795Z" fill="#CB001C"/>
    <path d="M28.5809 5.36157H-5.73633V6.89808H28.5809V5.36157Z" fill="white"/>
    <path d="M28.5809 3.82495H-5.73633V5.36146H28.5809V3.82495Z" fill="#CB001C"/>
    <path d="M28.5809 2.28955H-5.73633V3.8249H28.5809V2.28955Z" fill="white"/>
    <path d="M28.5809 0.753174H-5.73633V2.28964H28.5809V0.753174Z" fill="#CB001C"/>
    <path d="M9.93182 0.753174H-5.73633V11.5074H9.93182V0.753174Z" fill="#2A3560"/>
    <path d="M-0.54813 2.88428L-0.415065 3.29059H0.0125859L-0.333186 3.54141L-0.201195 3.94759L-0.54813 3.69685L-0.894528 3.94759L-0.761955 3.54141L-1.1084 3.29059H-0.680121L-0.54813 2.88428Z" fill="white"/>
    <path d="M-0.54813 4.67944L-0.415065 5.08459H0.0125859L-0.333186 5.33649L-0.201195 5.74271L-0.54813 5.49206L-0.894528 5.74271L-0.761955 5.33649L-1.1084 5.08459H-0.680121L-0.54813 4.67944Z" fill="white"/>
    <path d="M-0.54813 6.47363L-0.415065 6.87994H0.0125859L-0.333186 7.13189L-0.201195 7.53811L-0.54813 7.28728L-0.894528 7.53811L-0.761955 7.13189L-1.1084 6.87994H-0.680121L-0.54813 6.47363Z" fill="white"/>
    <path d="M-0.54813 8.2688L-0.415065 8.67502H0.0125859L-0.333186 8.92696L-0.201195 9.33206L-0.54813 9.08137L-0.894528 9.33206L-0.761955 8.92696L-1.1084 8.67502H-0.680121L-0.54813 8.2688Z" fill="white"/>
    <path d="M0.720917 1.93774L0.853445 2.34508H1.28181L0.934742 2.59591L1.06736 3.00213L0.720917 2.75018L0.374027 3.00213L0.507047 2.59591L0.160156 2.34508H0.588926L0.720917 1.93774Z" fill="white"/>
    <path d="M0.720917 3.73315L0.853445 4.13942H1.28181L0.934742 4.39016L1.06736 4.79763L0.720917 4.54573L0.374027 4.79763L0.507047 4.39016L0.160156 4.13942H0.588926L0.720917 3.73315Z" fill="white"/>
    <path d="M0.720917 5.52856L0.853445 5.93478H1.28181L0.934742 6.18548L1.06736 6.59299L0.720917 6.341L0.374027 6.59299L0.507047 6.18548L0.160156 5.93478H0.588926L0.720917 5.52856Z" fill="white"/>
    <path d="M0.720917 7.32349L0.853445 7.72966H1.28181L0.934742 7.98165L1.06736 8.38671L0.720917 8.13592L0.374027 8.38671L0.507047 7.98165L0.160156 7.72966H0.588926L0.720917 7.32349Z" fill="white"/>
    <path d="M0.720917 9.11841L0.853445 9.52472H1.28181L0.934742 9.7755L1.06736 10.1818L0.720917 9.93103L0.374027 10.1818L0.507047 9.7755L0.160156 9.52472H0.588926L0.720917 9.11841Z" fill="white"/>
    <path d="M1.97473 2.88428L2.10681 3.29059H2.53505L2.18874 3.54141L2.32073 3.94759L1.97473 3.69685L1.62789 3.94759L1.75992 3.54141L1.41406 3.29059H1.84185L1.97473 2.88428Z" fill="white"/>
    <path d="M1.97473 4.67944L2.10681 5.08459H2.53505L2.18874 5.33649L2.32073 5.74271L1.97473 5.49206L1.62789 5.74271L1.75992 5.33649L1.41406 5.08459H1.84185L1.97473 4.67944Z" fill="white"/>
    <path d="M1.97473 6.47363L2.10681 6.87994H2.53505L2.18874 7.13189L2.32073 7.53811L1.97473 7.28728L1.62789 7.53811L1.75992 7.13189L1.41406 6.87994H1.84185L1.97473 6.47363Z" fill="white"/>
    <path d="M1.97473 8.2688L2.10681 8.67502H2.53505L2.18874 8.92696L2.32073 9.33206L1.97473 9.08137L1.62789 9.33206L1.75992 8.92696L1.41406 8.67502H1.84185L1.97473 8.2688Z" fill="white"/>
    <path d="M3.24382 1.93799L3.37621 2.34533H3.80458L3.45813 2.59615L3.59022 3.00237L3.24382 2.75043L2.89746 3.00237L3.0299 2.59615L2.68359 2.34533H3.11129L3.24382 1.93799Z" fill="white"/>
    <path d="M3.24382 3.73315L3.37621 4.13942H3.80458L3.45813 4.39016L3.59022 4.79763L3.24382 4.54573L2.89746 4.79763L3.0299 4.39016L2.68359 4.13942H3.11129L3.24382 3.73315Z" fill="white"/>
    <path d="M3.24382 5.52832L3.37621 5.93454H3.80458L3.45813 6.18523L3.59022 6.59275L3.24382 6.34076L2.89746 6.59275L3.0299 6.18523L2.68359 5.93454H3.11129L3.24382 5.52832Z" fill="white"/>
    <path d="M3.24382 7.32349L3.37621 7.72966H3.80458L3.45813 7.98165L3.59022 8.38671L3.24382 8.13592L2.89746 8.38671L3.0299 7.98165L2.68359 7.72966H3.11129L3.24382 7.32349Z" fill="white"/>
    <path d="M3.24382 9.11865L3.37621 9.52496H3.80458L3.45813 9.77574L3.59022 10.1821L3.24382 9.93127L2.89746 10.1821L3.0299 9.77574L2.68359 9.52496H3.11129L3.24382 9.11865Z" fill="white"/>
    <path d="M4.49635 2.88403L4.62892 3.29034H5.0572L4.71076 3.54117L4.84324 3.94734L4.49635 3.69661L4.14937 3.94734L4.28257 3.54117L3.93555 3.29034H4.36441L4.49635 2.88403Z" fill="white"/>
    <path d="M4.49635 4.67944L4.62892 5.08459H5.0572L4.71076 5.33649L4.84324 5.74271L4.49635 5.49206L4.14937 5.74271L4.28257 5.33649L3.93555 5.08459H4.36441L4.49635 4.67944Z" fill="white"/>
    <path d="M4.49635 6.47388L4.62892 6.88019H5.0572L4.71076 7.13213L4.84324 7.53835L4.49635 7.28752L4.14937 7.53835L4.28257 7.13213L3.93555 6.88019H4.36441L4.49635 6.47388Z" fill="white"/>
    <path d="M4.49635 8.2688L4.62892 8.67502H5.0572L4.71076 8.92696L4.84324 9.33206L4.49635 9.08137L4.14937 9.33206L4.28257 8.92696L3.93555 8.67502H4.36441L4.49635 8.2688Z" fill="white"/>
    <path d="M5.76593 1.93799L5.89846 2.34533H6.32669L5.98038 2.59615L6.11237 3.00237L5.76593 2.75043L5.41962 3.00237L5.55161 2.59615L5.20508 2.34533H5.63353L5.76593 1.93799Z" fill="white"/>
    <path d="M5.76593 3.73315L5.89846 4.13942H6.32669L5.98038 4.39016L6.11237 4.79763L5.76593 4.54573L5.41962 4.79763L5.55161 4.39016L5.20508 4.13942H5.63353L5.76593 3.73315Z" fill="white"/>
    <path d="M5.76593 5.52832L5.89846 5.93454H6.32669L5.98038 6.18523L6.11237 6.59275L5.76593 6.34076L5.41962 6.59275L5.55161 6.18523L5.20508 5.93454H5.63353L5.76593 5.52832Z" fill="white"/>
    <path d="M5.76593 7.32349L5.89846 7.72966H6.32669L5.98038 7.98165L6.11237 8.38671L5.76593 8.13592L5.41962 8.38671L5.55161 7.98165L5.20508 7.72966H5.63353L5.76593 7.32349Z" fill="white"/>
    <path d="M5.76593 9.11865L5.89846 9.52496H6.32669L5.98038 9.77574L6.11237 10.1821L5.76593 9.93127L5.41962 10.1821L5.55161 9.77574L5.20508 9.52496H5.63353L5.76593 9.11865Z" fill="white"/>
    <path d="M7.01925 2.88428L7.15165 3.29059H7.58006L7.23362 3.54141L7.36561 3.94759L7.01925 3.69685L6.67299 3.94759L6.80543 3.54141L6.45898 3.29059H6.88673L7.01925 2.88428Z" fill="white"/>
    <path d="M7.01925 4.67944L7.15165 5.08459H7.58006L7.23362 5.33649L7.36561 5.74271L7.01925 5.49206L6.67299 5.74271L6.80543 5.33649L6.45898 5.08459H6.88673L7.01925 4.67944Z" fill="white"/>
    <path d="M7.01925 6.47363L7.15165 6.87994H7.58006L7.23362 7.13189L7.36561 7.53811L7.01925 7.28728L6.67299 7.53811L6.80543 7.13189L6.45898 6.87994H6.88673L7.01925 6.47363Z" fill="white"/>
    <path d="M7.01925 8.2688L7.15165 8.67502H7.58006L7.23362 8.92696L7.36561 9.33206L7.01925 9.08137L6.67299 9.33206L6.80543 8.92696L6.45898 8.67502H6.88673L7.01925 8.2688Z" fill="white"/>
    <path d="M8.28781 1.93799L8.42105 2.34533H8.84861L8.50284 2.59615L8.63479 3.00237L8.28781 2.75043L7.94132 3.00237L8.0738 2.59615L7.72754 2.34533H8.15595L8.28781 1.93799Z" fill="white"/>
    <path d="M8.28781 3.73315L8.42105 4.13942H8.84861L8.50284 4.39016L8.63479 4.79763L8.28781 4.54573L7.94132 4.79763L8.0738 4.39016L7.72754 4.13942H8.15595L8.28781 3.73315Z" fill="white"/>
    <path d="M8.28781 5.52832L8.42105 5.93454H8.84861L8.50284 6.18523L8.63479 6.59275L8.28781 6.34076L7.94132 6.59275L8.0738 6.18523L7.72754 5.93454H8.15595L8.28781 5.52832Z" fill="white"/>
    <path d="M8.28781 7.32349L8.42105 7.72966H8.84861L8.50284 7.98165L8.63479 8.38671L8.28781 8.13592L7.94132 8.38671L8.0738 7.98165L7.72754 7.72966H8.15595L8.28781 7.32349Z" fill="white"/>
    <path d="M8.28781 9.11865L8.42105 9.52496H8.84861L8.50284 9.77574L8.63479 10.1821L8.28781 9.93127L7.94132 10.1821L8.0738 9.77574L7.72754 9.52496H8.15595L8.28781 9.11865Z" fill="white"/>
  </g>
  <defs>
    <clipPath id="clip0_5773_5796">
      <rect y="0.737549" width="20" height="20" rx="10" fill="white"/>
    </clipPath>
  </defs>
</svg>