<svg xmlns="http://www.w3.org/2000/svg" width="22" height="22" viewBox="0 0 22 22" fill="none">
  <path d="M10.5754 6.99951C7.95039 6.99951 5.77539 9.13701 5.77539 11.7995C5.77539 14.462 7.91289 16.5995 10.5754 16.5995C13.2379 16.5995 15.3754 14.4245 15.3754 11.7995C15.3754 9.17451 13.2004 6.99951 10.5754 6.99951ZM10.5754 14.8745C8.88789 14.8745 7.50039 13.487 7.50039 11.7995C7.50039 10.112 8.88789 8.72451 10.5754 8.72451C12.2629 8.72451 13.6504 10.112 13.6504 11.7995C13.6504 13.487 12.2629 14.8745 10.5754 14.8745Z" fill="currentColor"/>
  <path d="M15.5631 7.9748C16.1637 7.9748 16.6506 7.48791 16.6506 6.8873C16.6506 6.28669 16.1637 5.7998 15.5631 5.7998C14.9625 5.7998 14.4756 6.28669 14.4756 6.8873C14.4756 7.48791 14.9625 7.9748 15.5631 7.9748Z" fill="currentColor"/>
  <path d="M18.3754 4.07461C17.4004 3.06211 16.0129 2.53711 14.4379 2.53711H6.71289C3.45039 2.53711 1.27539 4.71211 1.27539 7.97461V15.6621C1.27539 17.2746 1.80039 18.6621 2.85039 19.6746C3.86289 20.6496 5.21289 21.1371 6.75039 21.1371H14.4004C16.0129 21.1371 17.3629 20.6121 18.3379 19.6746C19.3504 18.6996 19.8754 17.3121 19.8754 15.6996V7.97461C19.8754 6.39961 19.3504 5.04961 18.3754 4.07461ZM18.2254 15.6996C18.2254 16.8621 17.8129 17.7996 17.1379 18.4371C16.4629 19.0746 15.5254 19.4121 14.4004 19.4121H6.75039C5.62539 19.4121 4.68789 19.0746 4.01289 18.4371C3.33789 17.7621 3.00039 16.8246 3.00039 15.6621V7.97461C3.00039 6.84961 3.33789 5.91211 4.01289 5.23711C4.65039 4.59961 5.62539 4.26211 6.75039 4.26211H14.4754C15.6004 4.26211 16.5379 4.59961 17.2129 5.27461C17.8504 5.94961 18.2254 6.88711 18.2254 7.97461V15.6996Z" fill="currentColor"/>
</svg>