<svg xmlns="http://www.w3.org/2000/svg" width="22" height="22" viewBox="0 0 22 22" fill="none">
  <title>Twitter</title>
  <path d="M20.3359 6.38699C19.6568 6.68886 18.9259 6.89249 18.1591 6.98361C18.9421 6.51486 19.5424 5.77236 19.8256 4.88661C19.0932 5.32124 18.2824 5.63661 17.4188 5.80686C16.7277 5.07036 15.7426 4.60986 14.6524 4.60986C12.5596 4.60986 10.8627 6.30674 10.8627 8.39999C10.8627 8.69661 10.8961 8.98574 10.9609 9.26361C7.81093 9.10536 5.01793 7.59674 3.14855 5.30361C2.8223 5.86311 2.63555 6.51411 2.63555 7.20936C2.63555 8.52411 3.30455 9.68436 4.32155 10.3639C3.70055 10.344 3.11593 10.1734 2.6048 9.88949C2.60443 9.90524 2.60443 9.92136 2.60443 9.93749C2.60443 11.7735 3.91093 13.305 5.64493 13.6537C5.32693 13.74 4.99205 13.7865 4.6463 13.7865C4.4018 13.7865 4.16443 13.7629 3.93305 13.7182C4.41568 15.2239 5.81518 16.32 7.47343 16.3504C6.17631 17.367 4.54243 17.973 2.76643 17.973C2.4608 17.973 2.15893 17.955 1.8623 17.9197C3.54005 18.9956 5.53205 19.6226 7.67218 19.6226C14.6438 19.6226 18.4557 13.8476 18.4557 8.83911C18.4557 8.67486 18.4523 8.51099 18.4452 8.34824C19.1854 7.81499 19.8282 7.14711 20.3359 6.38699Z" fill="currentColor"/>
</svg>